_________________________  Visit us at _________________________
  
http://p2pdl.com  ____________________________  http://p2pdl.com


Movie 43 2013 BRRip 720p x264 AAC - PRiSTiNE [P2PDL]

Genre: Comedy
Plot: A series of interconnected short films 
follows a washed-up producer as he pitches 
insane story lines featuring some of the 
biggest stars in Hollywood.
secret that haunts her.
Director: Bob Odenkirk, Elizabeth Banks
Stars: Liev Schreiber, Emma Stone, Richard Gere 
Rated: Rated R for strong pervasive crude and sexual content including dialogue, graphic nudity, language, some violence

Info: 
http://www.imdb.com/title/tt1333125/

General
Complete name                  : Movie 43 2013 BRRip 720p x264 AAC - PRiSTiNE.mp4
Format                         : MPEG-4
File size                      : 625 MiB
Duration                       : 1h 38mn
Overall bit rate mode          : Variable
Overall bit rate               : 891 Kbps

Video
Format                         : AVC
Format/Info                    : Advanced Video Codec
Format profile                 : High 10@L4.1
Bit rate                       : 811 Kbps
Width                          : 1 280 pixels
Height                         : 694 pixels
Display aspect ratio           : 1.85:1
Frame rate mode                : Constant
Frame rate                     : 23.976 fps
Bit depth                      : 10 bits
Stream size                    : 566 MiB (91%)
Writing library                : x264 core 130 r2273 b3065e6

Audio
Format                         : AAC
Format/Info                    : Advanced Audio Codec
Bit rate mode                  : Variable
Bit rate                       : 79.9 Kbps
Channel(s)                     : 2 channels
Channel positions              : Front: L R
Sampling rate                  : 48.0 KHz / 24.0 KHz
Stream size                    : 56.0 MiB (9%)
Language                       : English

Subtitle                       : Yes (English)
Source                         : 720p.BluRay.DTS.x264-HDWinG (Thanks)

Screenshots:
 
http://www.ultraimg.com/images/79gZs.jpg 
http://www.ultraimg.com/images/supN6.jpg 
http://www.ultraimg.com/images/gUvA.jpg 
http://www.ultraimg.com/images/gLZ.jpg 
http://www.ultraimg.com/images/JGHNa.jpg 
http://www.ultraimg.com/images/64fla.jpg 
http://www.ultraimg.com/images/AtU5W.jpg

----------------------------------------------------------------------------------------------------


Encoded using revolutionary 10bit encoding, which enables us to provide you more crispier 
and sharper images at small sizes, just make sure you follow our instructions without a fault.
Recommend to you to use latest version of VLC player. Install K-Lite Codec Pack or shark007 codecs
in case of any kind of problem in playback (For non-VLC Media Player users). Alternatively, install
Core AVC codecs, the fastest decoder that there is coupled with Community Center Codec Pack and play
on Windows Media Player Classic. Check sample to be sure.
Enjoy!

Encoder Notes:Looking For Early Access To Anything You Can Provide DVDScr, R5, DVDR, BluRay, Direct
Audio, Music Releases and Seedboxes. We require dedicated servers, so as to do more 
and fast releases of movies.
If You Got anything to offer please contact us at "prg@hush.com".

Face book Fan Page:   
http://www.fb.me/p2pdl